<svg id="Camada_1" data-name="Camada 1" xmlns="http://www.w3.org/2000/svg" viewBox="0 0 1080 1080"><defs><style>.cls-1{fill:#555a64;}</style></defs><path class="cls-1" d="M237,628.15q-33.4,0-66.81,0c-13.84,0-21.28-7.32-21.29-21q0-67.11,0-134.21c0-13.47,7.39-21,20.74-21q67.36-.08,134.73,0c13.35,0,20.73,7.55,20.73,21q0,67.11,0,134.22c0,13.7-7.46,21-21.28,21Zm.11-6.24q33.68,0,67.37,0c9.71,0,14.38-4.55,14.39-14.06q0-68,0-135.88c0-9.15-4.77-13.84-14.06-13.85q-67.65,0-135.29,0c-9.89,0-14.41,4.63-14.42,14.63q0,67.11,0,134.22c0,10.59,4.46,14.95,15.18,14.95Q203.65,621.94,237.06,621.91Z"/><path class="cls-1" d="M282.13,561.69c0,5.85-.12,10.8,0,15.74.12,3.74-1.4,5.49-5.18,5.38-3.45-.1-6.91,0-11,0,0,5.72-.11,10.83,0,15.94.12,3.82-1.54,5.22-5.28,5.2-15.83-.1-31.67-.13-47.51,0-4.2,0-5.49-1.83-5.36-5.7.17-4.93,0-9.86,0-15.46-4.05,0-7.5-.08-10.94,0-3.72.11-5.38-1.49-5.25-5.3.17-4.94,0-9.9,0-15.8-4.44,0-8.58-.15-12.7,0s-6-1.29-6-5.71q.19-37,0-74c0-4.27,1.5-5.88,5.82-5.87q58,.15,116,0c4.25,0,5.92,1.45,5.9,5.78q-.17,37,0,74.05c0,4.36-1.71,6-5.92,5.78C290.89,561.54,286.86,561.69,282.13,561.69ZM260,597.39c0-5.22.28-9.81-.08-14.36-.41-5.25,1.8-7,6.77-6.49,2.86.29,5.78.05,9.22.05,0-5.72.09-10.83,0-15.94-.09-3.79,1.58-5.34,5.33-5.2,4.33.15,8.68,0,12.89,0V482.81h-15c0,10.68-.22,21,.09,31.24.15,4.9-1.59,6.33-6.38,6.29-22.65-.21-45.3-.09-67.95-.1-11,0-10.06,1-10.07-10.16,0-9.13,0-18.26,0-27.33h-15v72.73c4.59,0,8.8.12,13,0,3.78-.13,5.37,1.48,5.27,5.25-.14,5.1,0,10.21,0,15.9,3.68,0,6.78.21,9.83-.05,4.51-.39,6.43,1.26,6.15,5.94-.3,4.89-.07,9.81-.07,14.91ZM219.87,482.7V514H233V482.7Zm39.75,0v31.11h13.11V482.68Zm-19.93.07v31H253v-31Zm-38.57-.16v31.19H213V482.59Z"/><path class="cls-1" d="M843.06,628.15q-33.4,0-66.81,0c-13.84,0-21.28-7.32-21.29-21q0-67.11,0-134.21c0-13.47,7.39-21,20.73-21q67.37-.08,134.73,0c13.35,0,20.73,7.55,20.74,21q0,67.11,0,134.22c0,13.7-7.46,21-21.28,21Zm.11-6.24q33.69,0,67.37,0c9.71,0,14.38-4.55,14.39-14.06q.06-68,0-135.88c0-9.15-4.77-13.84-14.06-13.85q-67.65,0-135.29,0c-9.89,0-14.41,4.63-14.41,14.63q0,67.11,0,134.22c0,10.59,4.46,14.95,15.19,14.95Q809.77,621.94,843.17,621.91Z"/><path class="cls-1" d="M888.24,561.69c0,5.85-.12,10.8,0,15.74.12,3.74-1.39,5.49-5.17,5.38-3.46-.1-6.92,0-11,0,0,5.72-.12,10.83,0,15.94.11,3.82-1.55,5.22-5.28,5.2-15.84-.1-31.68-.13-47.52,0-4.2,0-5.48-1.83-5.35-5.7.17-4.93,0-9.86,0-15.46-4,0-7.5-.08-10.95,0-3.72.11-5.37-1.49-5.25-5.3.17-4.94,0-9.9,0-15.8-4.43,0-8.57-.15-12.7,0s-6-1.29-6-5.71q.2-37,0-74c0-4.27,1.51-5.88,5.82-5.87q58,.15,116,0c4.25,0,5.93,1.45,5.91,5.78q-.18,37,0,74.05c0,4.36-1.71,6-5.92,5.78C897,561.54,893,561.69,888.24,561.69Zm-22.14,35.7c0-5.22.28-9.81-.07-14.36-.41-5.25,1.79-7,6.76-6.49,2.86.29,5.78.05,9.23.05,0-5.72.09-10.83,0-15.94-.09-3.79,1.57-5.34,5.32-5.2,4.34.15,8.68,0,12.89,0V482.81h-15c0,10.68-.21,21,.09,31.24.15,4.9-1.59,6.33-6.38,6.29-22.65-.21-45.3-.09-67.95-.1-11,0-10.06,1-10.07-10.16,0-9.13,0-18.26,0-27.33h-15v72.73c4.59,0,8.81.12,13,0,3.78-.13,5.37,1.48,5.27,5.25-.13,5.1,0,10.21,0,15.9,3.68,0,6.77.21,9.83-.05,4.5-.39,6.43,1.26,6.14,5.94-.29,4.89-.06,9.81-.06,14.91ZM826,482.7V514h13.07V482.7Zm39.75,0v31.11h13.1V482.68Zm-19.93.07v31h13.28v-31Zm-38.58-.16v31.19h11.9V482.59Z"/><path class="cls-1" d="M353.5,542.19h-.71a2.13,2.13,0,1,1,0-4.25h.71a2.13,2.13,0,0,1,0,4.25Z"/><path class="cls-1" d="M369,542.19h-1.41a2.13,2.13,0,0,1,0-4.25H369a2.13,2.13,0,0,1,0,4.25Z"/><path class="cls-1" d="M709.32,542.19h-1.41a2.13,2.13,0,0,1,0-4.25h1.41a2.13,2.13,0,0,1,0,4.25Zm-15.47,0h-1.41a2.13,2.13,0,1,1,0-4.25h1.41a2.13,2.13,0,0,1,0,4.25Zm-15.47,0H677a2.13,2.13,0,1,1,0-4.25h1.41a2.13,2.13,0,0,1,0,4.25Zm-15.47,0H661.5a2.13,2.13,0,1,1,0-4.25h1.41a2.13,2.13,0,0,1,0,4.25Zm-15.47,0H646a2.13,2.13,0,1,1,0-4.25h1.41a2.13,2.13,0,0,1,0,4.25Zm-15.47,0h-1.41a2.13,2.13,0,1,1,0-4.25H632a2.13,2.13,0,0,1,0,4.25Zm-15.47,0h-1.41a2.13,2.13,0,1,1,0-4.25h1.41a2.13,2.13,0,0,1,0,4.25Zm-15.47,0h-1.41a2.13,2.13,0,1,1,0-4.25H601a2.13,2.13,0,0,1,0,4.25Zm-15.48,0h-1.4a2.13,2.13,0,1,1,0-4.25h1.4a2.13,2.13,0,1,1,0,4.25Zm-15.47,0h-1.4a2.13,2.13,0,1,1,0-4.25h1.4a2.13,2.13,0,1,1,0,4.25Zm-15.47,0h-1.4a2.13,2.13,0,1,1,0-4.25h1.4a2.13,2.13,0,1,1,0,4.25Zm-15.47,0h-1.4a2.13,2.13,0,1,1,0-4.25h1.4a2.13,2.13,0,1,1,0,4.25Zm-15.47,0h-1.4a2.13,2.13,0,1,1,0-4.25h1.4a2.13,2.13,0,1,1,0,4.25Zm-15.47,0h-1.4a2.13,2.13,0,1,1,0-4.25h1.4a2.13,2.13,0,1,1,0,4.25Zm-15.47,0h-1.4a2.13,2.13,0,1,1,0-4.25h1.4a2.13,2.13,0,1,1,0,4.25Zm-15.47,0h-1.4a2.13,2.13,0,1,1,0-4.25h1.4a2.13,2.13,0,1,1,0,4.25Zm-15.47,0h-1.41a2.13,2.13,0,0,1,0-4.25h1.41a2.13,2.13,0,1,1,0,4.25Zm-15.47,0h-1.41a2.13,2.13,0,0,1,0-4.25h1.41a2.13,2.13,0,1,1,0,4.25Zm-15.47,0h-1.41a2.13,2.13,0,0,1,0-4.25h1.41a2.13,2.13,0,1,1,0,4.25Zm-15.47,0H414a2.13,2.13,0,0,1,0-4.25h1.41a2.13,2.13,0,1,1,0,4.25Zm-15.47,0H398.5a2.13,2.13,0,0,1,0-4.25h1.41a2.13,2.13,0,1,1,0,4.25Zm-15.47,0H383a2.13,2.13,0,0,1,0-4.25h1.41a2.13,2.13,0,1,1,0,4.25Z"/><path class="cls-1" d="M724.09,542.19h-.71a2.13,2.13,0,0,1,0-4.25h.71a2.13,2.13,0,1,1,0,4.25Z"/><polygon class="cls-1" points="364.06 553.98 366.38 551.49 354.1 540.07 366.38 528.65 364.06 526.15 349.1 540.07 364.06 553.98"/><polygon class="cls-1" points="712.82 553.98 710.5 551.49 722.78 540.07 710.5 528.65 712.82 526.15 727.78 540.07 712.82 553.98"/></svg>