<svg id="Camada_1" data-name="Camada 1" xmlns="http://www.w3.org/2000/svg" viewBox="0 0 1080 1080"><defs><style>.cls-1{fill:#555a64;}</style></defs><path class="cls-1" d="M353.43,545.91h-.71a2.13,2.13,0,0,1,0-4.25h.71a2.13,2.13,0,1,1,0,4.25Z"/><path class="cls-1" d="M368.9,545.91h-1.4a2.13,2.13,0,1,1,0-4.25h1.4a2.13,2.13,0,1,1,0,4.25Z"/><path class="cls-1" d="M709.25,545.91h-1.4a2.13,2.13,0,1,1,0-4.25h1.4a2.13,2.13,0,1,1,0,4.25Zm-15.47,0h-1.4a2.13,2.13,0,1,1,0-4.25h1.4a2.13,2.13,0,1,1,0,4.25Zm-15.47,0h-1.4a2.13,2.13,0,1,1,0-4.25h1.4a2.13,2.13,0,1,1,0,4.25Zm-15.47,0h-1.41a2.13,2.13,0,0,1,0-4.25h1.41a2.13,2.13,0,1,1,0,4.25Zm-15.47,0H646a2.13,2.13,0,0,1,0-4.25h1.41a2.13,2.13,0,1,1,0,4.25Zm-15.47,0h-1.41a2.13,2.13,0,0,1,0-4.25h1.41a2.13,2.13,0,1,1,0,4.25Zm-15.47,0H615a2.13,2.13,0,0,1,0-4.25h1.41a2.13,2.13,0,1,1,0,4.25Zm-15.47,0h-1.41a2.13,2.13,0,0,1,0-4.25H601a2.13,2.13,0,1,1,0,4.25Zm-15.47,0h-1.41a2.13,2.13,0,0,1,0-4.25h1.41a2.13,2.13,0,1,1,0,4.25Zm-15.47,0h-1.41a2.13,2.13,0,0,1,0-4.25H570a2.13,2.13,0,0,1,0,4.25Zm-15.47,0h-1.41a2.13,2.13,0,0,1,0-4.25h1.41a2.13,2.13,0,0,1,0,4.25Zm-15.47,0h-1.41a2.13,2.13,0,1,1,0-4.25h1.41a2.13,2.13,0,0,1,0,4.25Zm-15.47,0H522.2a2.13,2.13,0,1,1,0-4.25h1.41a2.13,2.13,0,0,1,0,4.25Zm-15.47,0h-1.41a2.13,2.13,0,1,1,0-4.25h1.41a2.13,2.13,0,0,1,0,4.25Zm-15.47,0h-1.41a2.13,2.13,0,1,1,0-4.25h1.41a2.13,2.13,0,0,1,0,4.25Zm-15.47,0h-1.41a2.13,2.13,0,1,1,0-4.25h1.41a2.13,2.13,0,0,1,0,4.25Zm-15.47,0h-1.41a2.13,2.13,0,1,1,0-4.25h1.41a2.13,2.13,0,0,1,0,4.25Zm-15.48,0h-1.4a2.13,2.13,0,1,1,0-4.25h1.4a2.13,2.13,0,1,1,0,4.25Zm-15.47,0h-1.4a2.13,2.13,0,1,1,0-4.25h1.4a2.13,2.13,0,1,1,0,4.25Zm-15.47,0h-1.4a2.13,2.13,0,1,1,0-4.25h1.4a2.13,2.13,0,1,1,0,4.25Zm-15.47,0h-1.4a2.13,2.13,0,1,1,0-4.25h1.4a2.13,2.13,0,1,1,0,4.25Zm-15.47,0H383a2.13,2.13,0,1,1,0-4.25h1.4a2.13,2.13,0,1,1,0,4.25Z"/><path class="cls-1" d="M724,545.91h-.7a2.13,2.13,0,1,1,0-4.25h.7a2.13,2.13,0,1,1,0,4.25Z"/><polygon class="cls-1" points="364 557.7 366.32 555.21 354.03 543.79 366.32 532.37 364 529.88 349.03 543.79 364 557.7"/><polygon class="cls-1" points="712.75 557.7 710.43 555.21 722.72 543.79 710.43 532.37 712.75 529.88 727.72 543.79 712.75 557.7"/><path class="cls-1" d="M311.49,647.46H162.59a5.47,5.47,0,0,1-5.46-5.46v-5.28a5.47,5.47,0,0,1,5.46-5.46h12.47V438a5.47,5.47,0,0,1,5.46-5.46h113A5.47,5.47,0,0,1,299,438V631.16h12.47a5.47,5.47,0,0,1,5.46,5.46V642A5.47,5.47,0,0,1,311.49,647.46ZM162.8,641.79H311.28v-5H298.81a5.46,5.46,0,0,1-5.46-5.45V438.21H180.73V631.48a5.46,5.46,0,0,1-5.45,5.45H162.8Zm119-41.56H264.22a4.08,4.08,0,0,1-4.08-4.08V578.6a4.08,4.08,0,0,1,4.08-4.07h17.53a4.08,4.08,0,0,1,4.08,4.07v17.55A4.08,4.08,0,0,1,281.75,600.23Zm-15.94-5.67h14.35V580.2H265.81Zm-20,5.65H228.32a4.08,4.08,0,0,1-4.08-4.08V578.6a4.08,4.08,0,0,1,4.08-4.07h17.51a4.08,4.08,0,0,1,4.08,4.07v17.53A4.08,4.08,0,0,1,245.83,600.21Zm-15.92-5.68h14.33V580.2H229.91Zm-20,5.64H192.37a4.07,4.07,0,0,1-4.07-4.07V578.67a4.08,4.08,0,0,1,4.07-4.08h17.57a4.08,4.08,0,0,1,4.08,4.08V596.1A4.08,4.08,0,0,1,209.94,600.17Zm-16-5.67h14.38V580.26H194Zm87.78-27H264.22a4.08,4.08,0,0,1-4.08-4.08V545.84a4.08,4.08,0,0,1,4.08-4.07h17.53a4.08,4.08,0,0,1,4.08,4.07v17.55A4.08,4.08,0,0,1,281.75,567.47Zm-15.94-5.67h14.35V547.44H265.81Zm-20,5.64H228.32a4.08,4.08,0,0,1-4.08-4.07V545.84a4.08,4.08,0,0,1,4.08-4.08h17.51a4.08,4.08,0,0,1,4.08,4.08v17.53A4.08,4.08,0,0,1,245.83,567.44Zm-15.92-5.67h14.33V547.43H229.91Zm-20,5.64H192.37a4.07,4.07,0,0,1-4.07-4.07V545.91a4.08,4.08,0,0,1,4.07-4.08h17.57a4.08,4.08,0,0,1,4.08,4.08v17.43A4.08,4.08,0,0,1,209.94,567.41Zm-16-5.67h14.38V547.5H194Zm87.78-27H264.22a4.08,4.08,0,0,1-4.08-4.08V513.1a4.08,4.08,0,0,1,4.08-4.08h17.53a4.08,4.08,0,0,1,4.08,4.08v17.55A4.08,4.08,0,0,1,281.75,534.73Zm-15.94-5.67h14.35V514.69H265.81Zm-20,5.64H228.32a4.08,4.08,0,0,1-4.08-4.07V513.1a4.08,4.08,0,0,1,4.08-4.08h17.51a4.08,4.08,0,0,1,4.08,4.08v17.53A4.08,4.08,0,0,1,245.83,534.7ZM229.91,529h14.33V514.69H229.91Zm-20,5.64H192.37a4.07,4.07,0,0,1-4.07-4.07V513.17a4.08,4.08,0,0,1,4.07-4.08h17.57a4.08,4.08,0,0,1,4.08,4.08V530.6A4.08,4.08,0,0,1,209.94,534.67ZM194,529h14.38V514.76H194Zm87.78-27.1H264.22a4.08,4.08,0,0,1-4.08-4.08V480.27a4.08,4.08,0,0,1,4.08-4.08h17.53a4.08,4.08,0,0,1,4.08,4.08v17.55A4.08,4.08,0,0,1,281.75,501.9Zm-15.94-5.67h14.35V481.86H265.81Zm-20,5.64H228.32a4.08,4.08,0,0,1-4.08-4.07V480.27a4.08,4.08,0,0,1,4.08-4.08h17.51a4.08,4.08,0,0,1,4.08,4.08V497.8A4.08,4.08,0,0,1,245.83,501.87Zm-15.92-5.67h14.33V481.86H229.91Zm-20,5.64H192.37a4.07,4.07,0,0,1-4.07-4.07V480.34a4.08,4.08,0,0,1,4.07-4.08h17.57a4.08,4.08,0,0,1,4.08,4.08v17.43A4.08,4.08,0,0,1,209.94,501.84Zm-16-5.67h14.38V481.93H194Zm87.78-27H264.22a4.08,4.08,0,0,1-4.08-4.07V447.52a4.08,4.08,0,0,1,4.08-4.08h17.53a4.08,4.08,0,0,1,4.08,4.08v17.55A4.08,4.08,0,0,1,281.75,469.14Zm-15.94-5.67h14.35V449.11H265.81Zm-20,5.65H228.32a4.08,4.08,0,0,1-4.08-4.08V447.51a4.08,4.08,0,0,1,4.08-4.07h17.51a4.08,4.08,0,0,1,4.08,4.07V465A4.08,4.08,0,0,1,245.83,469.12Zm-15.92-5.67h14.33V449.11H229.91Zm-20,5.64H192.37A4.08,4.08,0,0,1,188.3,465V447.58a4.07,4.07,0,0,1,4.07-4.07h17.57a4.08,4.08,0,0,1,4.08,4.07V465A4.08,4.08,0,0,1,209.94,469.09Zm-16-5.67h14.38V449.18H194Z"/><path class="cls-1" d="M917.41,647.46H768.51a5.47,5.47,0,0,1-5.46-5.46v-5.28a5.47,5.47,0,0,1,5.46-5.46H781V438a5.47,5.47,0,0,1,5.46-5.46h113a5.46,5.46,0,0,1,5.45,5.46V631.16h12.48a5.47,5.47,0,0,1,5.46,5.46V642A5.47,5.47,0,0,1,917.41,647.46Zm-148.69-5.67H917.2v-5H904.72a5.46,5.46,0,0,1-5.46-5.45V438.21H786.65V631.48a5.46,5.46,0,0,1-5.46,5.45H768.72Zm118.95-41.56H870.13a4.08,4.08,0,0,1-4.07-4.08V578.6a4.08,4.08,0,0,1,4.07-4.07h17.54a4.08,4.08,0,0,1,4.08,4.07v17.55A4.08,4.08,0,0,1,887.67,600.23Zm-15.94-5.67h14.35V580.2H871.73Zm-20,5.65H834.24a4.08,4.08,0,0,1-4.08-4.08V578.6a4.08,4.08,0,0,1,4.08-4.07h17.51a4.07,4.07,0,0,1,4.07,4.07v17.53A4.08,4.08,0,0,1,851.75,600.21Zm-15.92-5.68h14.32V580.2H835.83Zm-20,5.64H798.29a4.08,4.08,0,0,1-4.08-4.07V578.67a4.08,4.08,0,0,1,4.08-4.08h17.57a4.08,4.08,0,0,1,4.08,4.08V596.1A4.08,4.08,0,0,1,815.86,600.17Zm-16-5.67h14.39V580.26H799.88Zm87.79-27H870.13a4.08,4.08,0,0,1-4.07-4.08V545.84a4.07,4.07,0,0,1,4.07-4.07h17.54a4.08,4.08,0,0,1,4.08,4.07v17.55A4.08,4.08,0,0,1,887.67,567.47Zm-15.94-5.67h14.35V547.44H871.73Zm-20,5.64H834.24a4.08,4.08,0,0,1-4.08-4.07V545.84a4.08,4.08,0,0,1,4.08-4.08h17.51a4.08,4.08,0,0,1,4.07,4.08v17.53A4.07,4.07,0,0,1,851.75,567.44Zm-15.92-5.67h14.32V547.43H835.83Zm-20,5.64H798.29a4.08,4.08,0,0,1-4.08-4.07V545.91a4.08,4.08,0,0,1,4.08-4.08h17.57a4.08,4.08,0,0,1,4.08,4.08v17.43A4.08,4.08,0,0,1,815.86,567.41Zm-16-5.67h14.39V547.5H799.88Zm87.79-27H870.13a4.08,4.08,0,0,1-4.07-4.08V513.1a4.08,4.08,0,0,1,4.07-4.08h17.54a4.08,4.08,0,0,1,4.08,4.08v17.55A4.08,4.08,0,0,1,887.67,534.73Zm-15.94-5.67h14.35V514.69H871.73Zm-20,5.64H834.24a4.08,4.08,0,0,1-4.08-4.07V513.1a4.08,4.08,0,0,1,4.08-4.08h17.51a4.08,4.08,0,0,1,4.07,4.08v17.53A4.08,4.08,0,0,1,851.75,534.7ZM835.83,529h14.32V514.69H835.83Zm-20,5.64H798.29a4.08,4.08,0,0,1-4.08-4.07V513.17a4.08,4.08,0,0,1,4.08-4.08h17.57a4.08,4.08,0,0,1,4.08,4.08V530.6A4.08,4.08,0,0,1,815.86,534.67Zm-16-5.67h14.39V514.76H799.88Zm87.79-27.1H870.13a4.08,4.08,0,0,1-4.07-4.08V480.27a4.08,4.08,0,0,1,4.07-4.08h17.54a4.08,4.08,0,0,1,4.08,4.08v17.55A4.08,4.08,0,0,1,887.67,501.9Zm-15.94-5.67h14.35V481.86H871.73Zm-20,5.64H834.24a4.08,4.08,0,0,1-4.08-4.07V480.27a4.08,4.08,0,0,1,4.08-4.08h17.51a4.08,4.08,0,0,1,4.07,4.08V497.8A4.08,4.08,0,0,1,851.75,501.87Zm-15.92-5.67h14.32V481.86H835.83Zm-20,5.64H798.29a4.08,4.08,0,0,1-4.08-4.07V480.34a4.08,4.08,0,0,1,4.08-4.08h17.57a4.08,4.08,0,0,1,4.08,4.08v17.43A4.08,4.08,0,0,1,815.86,501.84Zm-16-5.67h14.39V481.93H799.88Zm87.79-27H870.13a4.08,4.08,0,0,1-4.07-4.07V447.52a4.08,4.08,0,0,1,4.07-4.08h17.54a4.08,4.08,0,0,1,4.08,4.08v17.55A4.08,4.08,0,0,1,887.67,469.14Zm-15.94-5.67h14.35V449.11H871.73Zm-20,5.65H834.24a4.08,4.08,0,0,1-4.08-4.08V447.51a4.08,4.08,0,0,1,4.08-4.07h17.51a4.08,4.08,0,0,1,4.07,4.07V465A4.08,4.08,0,0,1,851.75,469.12Zm-15.92-5.67h14.32V449.11H835.83Zm-20,5.64H798.29a4.08,4.08,0,0,1-4.08-4.08V447.58a4.08,4.08,0,0,1,4.08-4.07h17.57a4.08,4.08,0,0,1,4.08,4.07V465A4.08,4.08,0,0,1,815.86,469.09Zm-16-5.67h14.39V449.18H799.88Z"/></svg>