<svg id="Camada_1" data-name="Camada 1" xmlns="http://www.w3.org/2000/svg" viewBox="0 0 1080 1080"><defs><style>.cls-1{fill:#555a64;}</style></defs><path class="cls-1" d="M353.43,545.91h-.71a2.13,2.13,0,0,1,0-4.25h.71a2.13,2.13,0,1,1,0,4.25Z"/><path class="cls-1" d="M368.9,545.91h-1.4a2.13,2.13,0,1,1,0-4.25h1.4a2.13,2.13,0,1,1,0,4.25Z"/><path class="cls-1" d="M709.25,545.91h-1.4a2.13,2.13,0,1,1,0-4.25h1.4a2.13,2.13,0,1,1,0,4.25Zm-15.47,0h-1.4a2.13,2.13,0,1,1,0-4.25h1.4a2.13,2.13,0,1,1,0,4.25Zm-15.47,0h-1.4a2.13,2.13,0,1,1,0-4.25h1.4a2.13,2.13,0,1,1,0,4.25Zm-15.47,0h-1.41a2.13,2.13,0,0,1,0-4.25h1.41a2.13,2.13,0,1,1,0,4.25Zm-15.47,0H646a2.13,2.13,0,0,1,0-4.25h1.41a2.13,2.13,0,1,1,0,4.25Zm-15.47,0h-1.41a2.13,2.13,0,0,1,0-4.25h1.41a2.13,2.13,0,1,1,0,4.25Zm-15.47,0H615a2.13,2.13,0,0,1,0-4.25h1.41a2.13,2.13,0,1,1,0,4.25Zm-15.47,0h-1.41a2.13,2.13,0,0,1,0-4.25H601a2.13,2.13,0,1,1,0,4.25Zm-15.47,0h-1.41a2.13,2.13,0,0,1,0-4.25h1.41a2.13,2.13,0,1,1,0,4.25Zm-15.47,0h-1.41a2.13,2.13,0,0,1,0-4.25H570a2.13,2.13,0,0,1,0,4.25Zm-15.47,0h-1.41a2.13,2.13,0,0,1,0-4.25h1.41a2.13,2.13,0,0,1,0,4.25Zm-15.47,0h-1.41a2.13,2.13,0,1,1,0-4.25h1.41a2.13,2.13,0,0,1,0,4.25Zm-15.47,0H522.2a2.13,2.13,0,1,1,0-4.25h1.41a2.13,2.13,0,0,1,0,4.25Zm-15.47,0h-1.41a2.13,2.13,0,1,1,0-4.25h1.41a2.13,2.13,0,0,1,0,4.25Zm-15.47,0h-1.41a2.13,2.13,0,1,1,0-4.25h1.41a2.13,2.13,0,0,1,0,4.25Zm-15.47,0h-1.41a2.13,2.13,0,1,1,0-4.25h1.41a2.13,2.13,0,0,1,0,4.25Zm-15.47,0h-1.41a2.13,2.13,0,1,1,0-4.25h1.41a2.13,2.13,0,0,1,0,4.25Zm-15.48,0h-1.4a2.13,2.13,0,1,1,0-4.25h1.4a2.13,2.13,0,1,1,0,4.25Zm-15.47,0h-1.4a2.13,2.13,0,1,1,0-4.25h1.4a2.13,2.13,0,1,1,0,4.25Zm-15.47,0h-1.4a2.13,2.13,0,1,1,0-4.25h1.4a2.13,2.13,0,1,1,0,4.25Zm-15.47,0h-1.4a2.13,2.13,0,1,1,0-4.25h1.4a2.13,2.13,0,1,1,0,4.25Zm-15.47,0H383a2.13,2.13,0,1,1,0-4.25h1.4a2.13,2.13,0,1,1,0,4.25Z"/><path class="cls-1" d="M724,545.91h-.7a2.13,2.13,0,1,1,0-4.25h.7a2.13,2.13,0,1,1,0,4.25Z"/><polygon class="cls-1" points="364 557.7 366.32 555.21 354.03 543.79 366.32 532.37 364 529.88 349.03 543.79 364 557.7"/><polygon class="cls-1" points="712.75 557.7 710.43 555.21 722.72 543.79 710.43 532.37 712.75 529.88 727.72 543.79 712.75 557.7"/><path class="cls-1" d="M306,615.79h-10.5V608.7h9.73V446.84H189.49v12.89H182.4V446.07a6.32,6.32,0,0,1,6.31-6.32H306a6.33,6.33,0,0,1,6.32,6.32V609.48A6.32,6.32,0,0,1,306,615.79Z"/><path class="cls-1" d="M284.75,640.25H167.94a6.15,6.15,0,0,1-6.14-6.14V470a6.15,6.15,0,0,1,6.14-6.13H259.7a6.14,6.14,0,0,1,3.91,1.4l25,20.64a6.13,6.13,0,0,1,2.24,4.74V634.11A6.15,6.15,0,0,1,284.75,640.25Zm-115.86-7.09H283.8V491.05l-24.44-20.14H168.89Z"/><path class="cls-1" d="M261.56,492h25.78l-.53-3L261.89,468.4l-2.57-1v22.42A2.23,2.23,0,0,0,261.56,492Z"/><path class="cls-1" d="M269.29,510.6H178.46a3.55,3.55,0,1,1,0-7.09h90.83a3.55,3.55,0,1,1,0,7.09Z"/><path class="cls-1" d="M269.29,537.6H178.46a3.54,3.54,0,1,1,0-7.08h90.83a3.54,3.54,0,1,1,0,7.08Z"/><path class="cls-1" d="M269.29,564.64H178.46a3.54,3.54,0,1,1,0-7.08h90.83a3.54,3.54,0,1,1,0,7.08Z"/><path class="cls-1" d="M234.66,591.68h-56.2a3.55,3.55,0,1,1,0-7.09h56.2a3.55,3.55,0,1,1,0,7.09Z"/><path class="cls-1" d="M911.88,615.79h-10.5V608.7h9.73V446.84H795.4v12.89h-7.09V446.07a6.33,6.33,0,0,1,6.32-6.32H911.88a6.33,6.33,0,0,1,6.32,6.32V609.48A6.32,6.32,0,0,1,911.88,615.79Z"/><path class="cls-1" d="M890.67,640.25H773.86a6.14,6.14,0,0,1-6.14-6.14V470a6.14,6.14,0,0,1,6.14-6.13h91.76a6.09,6.09,0,0,1,3.9,1.4l25.05,20.64a6.12,6.12,0,0,1,2.23,4.74V634.11A6.14,6.14,0,0,1,890.67,640.25Zm-115.86-7.09H889.72V491.05l-24.44-20.14H774.81Z"/><path class="cls-1" d="M867.47,492h25.79l-.53-3L867.81,468.4l-2.57-1v22.42A2.23,2.23,0,0,0,867.47,492Z"/><path class="cls-1" d="M875.21,510.6H784.37a3.55,3.55,0,0,1,0-7.09h90.84a3.55,3.55,0,0,1,0,7.09Z"/><path class="cls-1" d="M875.21,537.6H784.37a3.54,3.54,0,1,1,0-7.08h90.84a3.54,3.54,0,1,1,0,7.08Z"/><path class="cls-1" d="M875.21,564.64H784.37a3.54,3.54,0,1,1,0-7.08h90.84a3.54,3.54,0,0,1,0,7.08Z"/><path class="cls-1" d="M840.58,591.68H784.37a3.55,3.55,0,0,1,0-7.09h56.21a3.55,3.55,0,0,1,0,7.09Z"/></svg>