<svg id="Camada_1" data-name="Camada 1" xmlns="http://www.w3.org/2000/svg" viewBox="0 0 1080 1080"><defs><style>.cls-1{fill:#555a64;}</style></defs><path class="cls-1" d="M500.18,604.92V547.64c0-6.95,2.47-10.47,9-13a2.17,2.17,0,0,0,1.08-1.58,112.9,112.9,0,0,0-8.93-48.49c-.56-1.31-1.5-1.56-2.6-1.91a13.9,13.9,0,0,1-9.81-15.52A14.09,14.09,0,0,1,503,455.31a13.93,13.93,0,0,1,12.13,20.27,4.16,4.16,0,0,0-.08,4,124.51,124.51,0,0,1,9.87,50.82c0,1.22,0,2.43,0,3.92h7.6c.06-.81.14-1.4.14-2q0-32.44,0-64.88a3,3,0,0,0-1.31-2.71,14,14,0,1,1,18.92-20.4,14.08,14.08,0,0,1-1.78,20.53,3.37,3.37,0,0,0-1.2,2.29q-.09,32.85,0,65.7c0,.39.07.79.12,1.31H555c0-1.07,0-2.07,0-3.07a127.18,127.18,0,0,1,10.16-52.42,3.92,3.92,0,0,0-.33-2.76c-2.51-5.37-2.23-10.53,1.43-15.2a13,13,0,0,1,14.22-4.92,13.35,13.35,0,0,1,10.41,10.89,13.73,13.73,0,0,1-10,16.07,3.27,3.27,0,0,0-2.39,2.13,114.4,114.4,0,0,0-8.9,47.9c0,1.07.22,1.66,1.42,2,5.75,1.85,8.72,6,8.73,12.14q0,27.62,0,55.25v2.57a14.06,14.06,0,0,0,1.54-.92c18-15.44,26.21-35,23.85-58.64-1.41-14.24-7.4-26.53-17-37.09-1-1.09-1.72-2.27-.15-3.17.58-.33,2.12.2,2.71.83a65.66,65.66,0,0,1,13.77,21.83c15.55,40.66-8.81,85-51.63,93.08a68.65,68.65,0,0,1-81.2-57.36c-3.26-21.65,2.66-40.76,17.16-57.19.32-.35.6-.9,1-1a12.79,12.79,0,0,1,2.41-.16c0,.86.41,1.93,0,2.53a44.67,44.67,0,0,1-3.28,3.91,65.69,65.69,0,0,0,9.26,92.06C498.71,603.87,499.25,604.23,500.18,604.92Zm76.12-28.56h0c0-9.75,0-19.51,0-29.26,0-5.85-3.49-9.27-9.33-9.28q-26.82,0-53.62,0c-6.32,0-9.71,3.44-9.71,9.76,0,19.1,0,38.2-.06,57.3A4.1,4.1,0,0,0,506,609q34.47,19.22,68.66-.46a3,3,0,0,0,1.67-2.93C576.28,595.87,576.3,586.12,576.3,576.36Zm-32.56-42.1v-2.63q0-32.82,0-65.65a3.63,3.63,0,0,1,1.85-3.51A10.2,10.2,0,0,0,550,450.73a10.42,10.42,0,0,0-19.94-.16,10.17,10.17,0,0,0,4.23,11.8,4,4,0,0,1,2,3.85q-.06,32.52,0,65v2.87c.58.06.91.13,1.23.13Zm-22.55-.1a3.65,3.65,0,0,0,.22-.62c0-.4.05-.81.05-1.22a124.09,124.09,0,0,0-10.4-53.16,3.63,3.63,0,0,1,.21-4,10.23,10.23,0,0,0-.49-12.53,10.43,10.43,0,0,0-18.43,7.64,10.24,10.24,0,0,0,8.51,9.2,4.06,4.06,0,0,1,3.34,2.77,115.69,115.69,0,0,1,9.6,47.15c0,1.54,0,3.09,0,4.75Zm44.95,0c0-1.9,0-3.53,0-5.16a115.29,115.29,0,0,1,9.29-46c.88-2.07,1.9-3.21,4.25-3.68a10.21,10.21,0,0,0,7.84-11.72,10.56,10.56,0,0,0-10.9-8.8,10.44,10.44,0,0,0-8.1,16.18c.73,1.15,1.26,2.16.62,3.57a122,122,0,0,0-10.64,49c0,2.16,0,4.32,0,6.57Z"/><path class="cls-1" d="M627.44,552.75A87.37,87.37,0,0,1,553,639.23c-46.28,7.17-90.77-24.21-98.86-70.29-5.72-32.59,4.19-60.13,28.69-82.39l.61-.55c1-.84,2.05-1.37,3-.15.84,1.07.24,2-.65,2.83-2.31,2.12-4.73,4.15-6.81,6.48-22.17,24.76-29,53.31-18.22,84.7s33.46,50.19,66.12,55.66A83.26,83.26,0,0,0,622.94,565c4.17-30.19-5.67-55.58-28.34-76-.36-.32-.92-.59-1-1-.17-.72-.37-1.74,0-2.2s1.4-.41,2.14-.37c.39,0,.78.51,1.14.82A87.39,87.39,0,0,1,627.44,552.75Z"/><path class="cls-1" d="M547,453.64a7,7,0,1,1-7.06-6.95A7.05,7.05,0,0,1,547,453.64Zm-3.49.16a3.59,3.59,0,0,0-3.46-3.57,3.52,3.52,0,0,0-3.56,3.43,3.51,3.51,0,1,0,7,.14Z"/><path class="cls-1" d="M509.73,469.17a7,7,0,1,1-7.07-6.92A7,7,0,0,1,509.73,469.17Zm-3.48.06a3.57,3.57,0,0,0-3.57-3.45,3.52,3.52,0,0,0,.12,7A3.64,3.64,0,0,0,506.25,469.23Z"/><path class="cls-1" d="M570.2,469.31a7,7,0,1,1,7.17,7.05A7,7,0,0,1,570.2,469.31Zm10.5-.09a3.53,3.53,0,0,0-3.57-3.44,3.52,3.52,0,1,0,.15,7A3.59,3.59,0,0,0,580.7,469.22Z"/></svg>