<svg id="Camada_1" data-name="Camada 1" xmlns="http://www.w3.org/2000/svg" viewBox="0 0 1080 1080"><defs><style>.cls-1{fill:#555a64;}</style></defs><path class="cls-1" d="M455.44,480.89c0-2.7.05-5.4,0-8.09a1.91,1.91,0,0,1,1.33-2.18q41.1-17.47,82.19-35a3.34,3.34,0,0,1,2.33,0q41,17.41,82,34.91a1.91,1.91,0,0,1,1.46,2.09c-.88,33.72-5.66,66.76-17.26,98.58-6.41,17.56-15,33.92-27.65,47.91-10.49,11.61-23,20.24-37.93,25.12a6.1,6.1,0,0,1-3.49,0c-16.81-5.46-30.37-15.58-41.5-29.14-10.51-12.8-18-27.3-23.78-42.71a263,263,0,0,1-14.3-58.41c-1.46-11-2.37-22.08-3.53-33.12ZM614,487.24c0-1.92-.09-3.85,0-5.77a2.14,2.14,0,0,0-1.62-2.4Q577,464,541.58,449a4.27,4.27,0,0,0-3,0q-35.44,15-70.85,30.09a2.24,2.24,0,0,0-1.62,2.59c.27,4.74.37,9.49.7,14.23A270.75,270.75,0,0,0,477.69,557c5,16.17,11.67,31.53,21.87,45.18,10,13.44,22.57,23.61,38.67,29a6.25,6.25,0,0,0,3.66,0c17.25-5.73,30.3-16.94,40.6-31.6,9.18-13,15.36-27.53,20-42.71C609.42,534.13,612.77,510.87,614,487.24Z"/><path class="cls-1" d="M578.47,575.46a54.72,54.72,0,0,0-76.58-.15l-5.81-5.79c22.12-23.85,64.34-24.87,88.26.24Z"/><path class="cls-1" d="M572.9,581.2l-6,5.88a38.33,38.33,0,0,0-53.59-.14l-5.77-5.89C522.52,564.59,553.51,561.61,572.9,581.2Z"/><path class="cls-1" d="M561.4,592.75a8.53,8.53,0,0,1-.56.68l-5.21,5.34a22.21,22.21,0,0,0-15.5-6.41,21.9,21.9,0,0,0-15.34,6.15L519,592.64C529.1,581.59,549.29,580.31,561.4,592.75Z"/><path class="cls-1" d="M534.51,606.13a5.57,5.57,0,0,1,11.13.35,5.57,5.57,0,1,1-11.13-.35Z"/><path class="cls-1" d="M496.05,530.17l-12.32-40.48h5.51l10.61,36.49h.76l10.64-36.49h5.48l-12.29,40.48Z"/><path class="cls-1" d="M524.65,530.17V489.69h5.17v23.95l0,2.34v14.19Zm3.42-13.46v-4.37h11.5q4.15,0,6-2.08a8.2,8.2,0,0,0,1.87-5.71v-2.76a8.21,8.21,0,0,0-1.85-5.73q-1.86-2-6-2H528v-4.34h11.69q6.78,0,9.87,3.18t3.09,8.76v3q0,5.64-3.12,8.84t-9.87,3.2Z"/><path class="cls-1" d="M569.73,489.69l16.44,34.84h.38l-.22-17.67V489.69h5.13v40.48h-7.79L567,495h-.39l.23,18.5v16.63h-5.13V489.69Z"/></svg>