<svg id="Camada_1" data-name="Camada 1" xmlns="http://www.w3.org/2000/svg" viewBox="0 0 1080 1080"><defs><style>.cls-1{fill:#555a64;}</style></defs><path class="cls-1" d="M529,436.19a56.18,56.18,0,0,1,12.7,3.67c8.69,3.4,16.68,7.4,23.17,14.11a7.51,7.51,0,0,0,6.12,2.44c23.62-.39,40.11,16.38,39.25,40.17-.17,4.65,2.73,1.88,4.11,2.24,13,3.34,23.18,10.17,28.75,22.79,1.42,3.2,2.41,6.59,3.59,9.9v12.21c-1.62,2-1.41,4.63-2.26,6.91-6.34,17.14-21.63,27.13-40.21,26.23-2.19-.1-4.34-.32-4.44-3-.09-2.88,2.1-3.76,4.48-3.56a32.3,32.3,0,0,0,20.94-5.4c11.32-7.31,16.82-21,13.89-34.77-2.6-12.18-14.09-22.85-26.61-24.8-2.45-.38-4.05,0-4.94,2.73-.77,2.33-2.3,4.41-3.49,6.6s-3.1,4-5.65,2.49c-2.8-1.66-1.48-3.95-.06-6,5.54-8,6.74-16.75,4.16-26-5.71-20.37-30.88-28.82-47.75-16.13-.5.38-1,.8-1.45,1.19-1.78,1.47-3.74,2-5.4.07s-.69-3.73,1-5.23c3.1-2.7,6.72-4.53,10.84-6.53a51.57,51.57,0,0,0-24-14.13c-29.05-8-58.53,8.16-67.72,36.93-.62,1.92-1.49,3.78-.92,5.88,2.13-1.07,4.61.58,6.64-.73a7.84,7.84,0,0,1,4-.88c2.53-.2,4.41.68,4.55,3.47s-2,3-4.17,3.16c-13.81,1.05-24.91,6.93-32.25,18.89a38.66,38.66,0,0,0,12.38,53.06c5.59,3.57,11.58,5.94,18.34,5.94.62,0,1.25.1,1.87.1,2.29,0,3.74,1.41,3.67,3.39-.08,2.15-1.54,3.2-4.1,3.25-20.23.4-39.62-15.63-43.72-36.35-.17-.87.15-1.93-.95-2.43V524c.28-.33.76-.62.83-1,2.86-14.12,10.44-24.82,23.15-31.72,1.81-1,2-2.34,2.4-4.11,4.81-23.58,18.47-39.66,41.09-48.07,3.75-1.4,36.92-2.53,39.18-3S524,435.5,529,436.19Z"/><path class="cls-1" d="M522.62,644.27c-1.41-1.55-4.22-2.35-3-5.32s3.56-1.88,5.9-1.56c3.83.52,6.41-1.63,7.16-5.25s-1.33-6.07-4.66-7.12c-3.56-1.12-6.12.63-7.51,3.86-1.08,2.51-.75,7-5.18,5-4.19-1.93-1.7-5.68-.56-8.57a9.53,9.53,0,0,1,5.42-5.58c2.51-1,2.9-2.65,2.89-5.08-.07-31.92,0-63.83-.08-95.75,0-1.54.82-3.47-1.46-4.45-2-.85-2.89-2.43-1.91-4.54s2.76-2.23,4.76-1.56c2.89,1,5.23,0,7-2.28a5.4,5.4,0,0,0,.82-6.12c-1.29-2.65-3.33-4.25-6.28-4a6.17,6.17,0,0,0-5.85,5.24c-.5,2.54-1,4.89-4.19,4.21-3.49-.75-2.91-3.64-2.43-6.07a12.92,12.92,0,0,1,12.17-10.5A12.73,12.73,0,0,1,538.8,498c1.88,5.8,0,12.23-5.32,15.09-3.14,1.7-3.8,3.66-3.79,6.95q.18,46.93,0,93.87c0,2.88.55,4.53,3.44,6.12,8.76,4.83,8.55,17.28,0,22.44-1,.61-2.48.45-3,1.82Z"/><path class="cls-1" d="M567,527.79c.08,5.38-2.35,9.42-7.1,11.68-2.16,1-2.55,2.23-2.54,4.27q.09,22.05,0,44.11A12.47,12.47,0,0,0,559,593.6c2.16,4.32,4.18,8.71,6.3,13.06s3.52,8.68,10.33,9.24c7.34.61,11.15,9.26,8.86,16.37-2.2,6.82-10.38,10.65-17.14,8-2.17-.84-4.24-2-3.34-4.75s2.92-2.57,5.36-1.75c4.25,1.44,7.54-.13,8.67-3.75a6.41,6.41,0,0,0-4.38-8.13c-3.65-1-6.77,1.06-7.82,5.33-.57,2.33-1.26,4.38-4.16,4-3.13-.46-2.77-3-2.48-5.12.2-1.51.43-3.46,1.42-4.34,3.45-3.1,2-6.12.19-9-8.53-13.38-11.61-27.87-10.19-43.66.74-8.22.16-16.57.11-24.86,0-1.6.63-3.44-1.73-4.29a3,3,0,0,1-1.78-4.23c.86-2,2.4-2.31,4.64-1.78,4.56,1.07,7.92-1.08,8.41-5,.45-3.64-1.17-6.11-4.69-7s-6,.7-7.46,4a26.64,26.64,0,0,0-.62,2.74c-.57,1.84-1.73,3.05-3.79,2.6s-2.61-1.87-2.63-3.86c0-6.46,6-12.41,12.76-12.52A13.09,13.09,0,0,1,567,527.79Z"/><path class="cls-1" d="M495.27,567.58c0-5.16,0-10.33,0-15.49,0-3.38,1.11-7.2-3.52-8.91a2.3,2.3,0,0,1-.82-2.93c.52-1.2,1.25-2.3,2.7-2.26a25.71,25.71,0,0,1,3.65.6,6.31,6.31,0,0,0,7.44-4.78c.69-3.83-1-6.61-4.59-7.6-3.42-.93-6.2.65-7.47,4-.95,2.52-.77,6.6-4.89,5s-2.15-5.34-1.11-8.08a12.78,12.78,0,0,1,12.7-7.85,13.62,13.62,0,0,1,11.85,9.85c1.34,5.35-.79,11.57-5.86,14.11-3.25,1.63-3.46,3.66-3.43,6.6.11,11.27-.25,22.55.16,33.8.23,5.95-.95,11.07-4.8,15.57-2,2.39-2.67,4.57-1.06,7.85,2.43,5,.91,9.81-3,13.7s-8.62,4.77-13.82,2.93c-2.36-.83-4.64-2-3.55-5,1-2.69,3.28-2.16,5.56-1.44,5.09,1.61,9.41-1.21,9.11-5.92a5.94,5.94,0,0,0-5.56-6c-3.62-.48-6.06,1.35-7,4.81-.66,2.48-1,5.59-4.41,4.54-3.7-1.13-2.74-4.34-1.84-7.11A12.45,12.45,0,0,1,486,598.93c2.69.43,3.73-.56,5.24-2.46a19.1,19.1,0,0,0,4.15-13.87C495,577.62,495.27,572.59,495.27,567.58Z"/><path class="cls-1" d="M619.51,608.69c0,9-9,15.37-17.25,12.27C600,620.12,598,619,599,616.28c.81-2.38,2.83-2.42,5.07-1.87,4.32,1.07,7.56-.58,8.57-4.13a6.55,6.55,0,0,0-4.88-7.89c-3.52-.84-6.57,1.27-7.66,5.75-.56,2.27-1.3,4-3.87,3.6-2.87-.47-3.31-2.72-2.6-5,.64-2.13-.12-3.39-1.89-4.11-12.06-4.88-15.31-14.17-13.36-26.21a35.36,35.36,0,0,0,0-6.09c0-2.12.47-4.29-2.3-5.5-1.61-.71-1.56-2.69-.7-4.15s2.24-1.67,4-1.38c5.4.89,9.48-2.34,8.68-6.71-.6-3.29-2.74-5.36-6.1-5.49a6,6,0,0,0-6.47,5c-.58,2.68-1.06,5.33-4.49,4.29-3.2-1-2.61-3.8-1.92-6.32a13,13,0,0,1,25.21-.16,12.21,12.21,0,0,1-5.81,14.45c-2.81,1.53-3.59,3.23-3.47,6.2.22,5.15.2,10.33,0,15.49-.1,2.8.6,4.78,3.2,6.1A27.55,27.55,0,0,1,592.5,595c3,2.37,5.52,3.53,9.9,1.48C610.43,592.76,619.52,599.71,619.51,608.69Z"/></svg>