<svg id="Camada_1" data-name="Camada 1" xmlns="http://www.w3.org/2000/svg" viewBox="0 0 1080 1080"><defs><style>.cls-1{fill:#555a64;}</style></defs><path class="cls-1" d="M563.18,526.5h-.07c-3.8,0-7.59,0-11.4,0h-7.8l.7-2.66a2.47,2.47,0,0,1,.74-1.5c3.41-3.2,5.27-6.88,5.35-10.66s-1.6-7.53-4.88-10.88c-3-3.07-6.34-6.78-7.74-11.87a27.49,27.49,0,0,1-.68-3.44c-.1-.63-.19-1.23-.31-1.82-6.31,8.51-10,15.67-11.82,23.12-1.18,4.76-.84,8.47,1.07,11.68a22.08,22.08,0,0,0,2.28,2.94c.44.51.88,1,1.32,1.56l2.57,3.2-4.43.28c-.35,0-.75.06-1.14.06h-2.43c-4.58,0-9.15,0-13.72,0a4.37,4.37,0,0,1-3.35-1.59,35.93,35.93,0,0,1-6.9-19.11c-.58-8.38,2-16.31,7.86-24.23,2.89-3.9,6-7.7,9-11.38,1.47-1.79,2.94-3.59,4.38-5.4,7.08-8.86,11.1-18.18,12.27-28.52a3.27,3.27,0,0,1,.22-.81l1.55-4.59,2.4,3.61c.54.81,1.07,1.59,1.58,2.34,1.11,1.63,2.15,3.16,3.12,4.77,5.23,8.69,8.06,16.24,8.92,23.77a32.89,32.89,0,0,1-.61,11.48,30.33,30.33,0,0,0,11.22-5.62c.69-.55,1.36-1.15,2.08-1.79l1.16-1,2.22-1.94,1.14,2.72c.16.36.31.72.46,1.07.36.81.7,1.61,1,2.42,4.71,13.15,5.57,25.56,2.63,37.95a41,41,0,0,1-6,13.84A4.48,4.48,0,0,1,563.18,526.5Zm-8.06-4.29q4,0,8,0l.25,0a1.28,1.28,0,0,0,.19-.24A36.47,36.47,0,0,0,569,509.58c2.74-11.56,1.92-23.18-2.5-35.54l-.21-.55c-.39.34-.77.67-1.17,1A34.6,34.6,0,0,1,552,481c-1.83.48-3.25.24-4.22-.71s-1.23-2.37-.77-4.19a28.52,28.52,0,0,0,.58-10.29c-.8-7-3.37-13.8-8.33-22-.53-.88-1.09-1.75-1.68-2.63a60.42,60.42,0,0,1-12.49,26.29c-1.46,1.82-2.94,3.63-4.42,5.44-3,3.63-6.05,7.4-8.88,11.21-5.23,7.07-7.53,14.08-7,21.41a31.89,31.89,0,0,0,6,16.72l.1,0c4.3,0,8.62,0,12.95,0a16.4,16.4,0,0,1-1.11-1.61c-2.49-4.17-3-9-1.54-14.88,2-8.26,6.09-16.1,13.12-25.43a4.19,4.19,0,0,1,4.11-1.38,4.28,4.28,0,0,1,2.7,3.05c.23.95.38,1.9.52,2.82a25.2,25.2,0,0,0,.58,3c1,3.7,3.41,6.68,6.68,10,4.09,4.18,6.2,9,6.09,13.95a17.9,17.9,0,0,1-3.81,10.46h4Zm-4.06-44.49Z"/><path class="cls-1" d="M536.57,493.93a20.43,20.43,0,0,0,4.24,8.41c1.2,1.4,2.52,2.7,3.7,4.11A9.37,9.37,0,0,1,533.15,521c-3.28-1.66-4.95-4.94-4.59-9.09a30.09,30.09,0,0,1,3.81-11.36c1.19-2.28,2.57-4.46,3.87-6.68Z"/><path class="cls-1" d="M567.59,591.29h-55.2V564h55.2Zm-51-4.25h46.7V568.27h-46.7Z"/><path class="cls-1" d="M510.24,591.26H455V564h55.27Zm-51-4.26H506V568.22H459.22Z"/><path class="cls-1" d="M625,591.29H569.78V564H625ZM574,587h46.73V568.25H574Z"/><path class="cls-1" d="M481.54,562H426.28v-27.1h55.26Zm-51-4.25h46.76v-18.6H430.53Z"/><path class="cls-1" d="M538.93,562.07H483.67V534.92h55.26Zm-51-4.26h46.76V539.17H487.92Z"/><path class="cls-1" d="M596.31,562H541.07V535h55.24Zm-51-4.25h46.74V539.25H545.32Z"/><path class="cls-1" d="M653.72,562H598.44V535h55.28Zm-51-4.25h46.78V539.2H602.69Z"/><path class="cls-1" d="M454.12,591.24H426.28V564h27.84ZM430.53,587h19.33V568.25H430.53Z"/><path class="cls-1" d="M653.72,591.25H625.87V564h27.85ZM630.12,587h19.35v-18.7H630.12Z"/><path class="cls-1" d="M567.59,649.19h-55.2V621.93h55.2Zm-51-4.25h46.7V626.18h-46.7Z"/><path class="cls-1" d="M510.24,649.16H455V621.87h55.27Zm-51-4.25H506V626.12H459.22Z"/><path class="cls-1" d="M625,649.19H569.78V621.9H625Zm-51-4.25h46.73V626.15H574Z"/><path class="cls-1" d="M481.54,619.94H426.28v-27.1h55.26Zm-51-4.26h46.76V597.09H430.53Z"/><path class="cls-1" d="M538.93,620H483.67V592.82h55.26Zm-51-4.25h46.76V597.08H487.92Z"/><path class="cls-1" d="M596.31,619.93H541.07v-27h55.24Zm-51-4.25h46.74V597.16H545.32Z"/><path class="cls-1" d="M653.72,619.92H598.44V592.86h55.28Zm-51-4.25h46.78V597.11H602.69Z"/><path class="cls-1" d="M454.12,649.14H426.28V621.9h27.84Zm-23.59-4.25h19.33V626.15H430.53Z"/><path class="cls-1" d="M653.72,649.15H625.87V621.94h27.85Zm-23.6-4.25h19.35V626.19H630.12Z"/></svg>