<svg id="Camada_1" data-name="Camada 1" xmlns="http://www.w3.org/2000/svg" viewBox="0 0 1080 1080"><defs><style>.cls-1{fill:#555a64;}</style></defs><path class="cls-1" d="M645,527.59c49.33,8,67,58.26,43.52,92.17-10.82,15.61-25.73,25-45,25.33-25.41.5-50.84,0-76.25.33-7.4.1-9.22-3.35-9.1-9.79.2-10.74.49-21.5-.07-32.21-.49-9.21,2.6-13.49,12.23-12.28,3.8.48,7.71.08,11.94.08l-43.48-42.08-42.83,42.07c6.52,0,11.28.26,16-.06,6.65-.46,10.11,1.81,10,9-.22,12.17-.16,24.35,0,36.52.1,6.39-2.57,8.82-9,8.74-21.83-.26-43.68.24-65.51-.2a67.87,67.87,0,0,1-35.86-124.34c6-3.89,8.73-8.23,10.26-15,15.61-68.83,100.8-94.68,153-46.83A24.76,24.76,0,0,0,589.42,465c29.54,1.07,53.1,22.93,55.5,52.47C645.18,520.6,645,523.8,645,527.59ZM511.06,634.25V601.49c-8.61,0-16.47.29-24.29-.16-2.84-.16-5.58-2.1-8.37-3.22,1.23-2.77,1.82-6.16,3.8-8.2,17-17.45,34.32-34.57,51.35-52,4.31-4.41,7.73-5.38,12.47-.52,17.26,17.69,34.85,35.06,52.07,52.78,1.93,2,2.34,5.47,3.45,8.25-2.87,1-5.7,2.76-8.61,2.91-8,.4-16.09.14-23.81.14v32.88c27.32,0,53.86,1.57,80.12-.5,21-1.64,36.67-20.67,39-41.39a48.92,48.92,0,0,0-28-50c-13-6-15.72-5.16-23.06,7-1.1,1.83-2,4.15-3.69,5.18-1.82,1.12-5,2-6.49,1.15-1.33-.75-1.87-4.15-1.58-6.21s2.14-3.65,3.19-5.51c15.59-27.68.37-61.19-30.71-67.7-13.9-2.91-26,.85-37.44,8.89-2.08,1.46-6,.28-9.1.33,1-2.75,1.2-6.37,3.11-8.05,4.16-3.67,9.18-6.35,14.54-9.88-26.17-22.72-55-29.24-86.55-17.56-27.63,10.23-44.66,30.6-51.27,60.23,6.75-.43,12.37-1.17,17.95-.94,1.74.07,4.63,2.71,4.71,4.28s-2.23,4.14-4.08,5c-2.12,1-4.9.71-7.38,1a57.86,57.86,0,0,0-50.82,55.11c-1,29,18.88,55.92,47.17,58.88C462.35,636.22,486.44,634.25,511.06,634.25Z"/></svg>