<svg id="Camada_1" data-name="Camada 1" xmlns="http://www.w3.org/2000/svg" viewBox="0 0 1080 1080"><defs><style>.cls-1{fill:#555a64;}</style></defs><path class="cls-1" d="M389.77,712c-10.45,0-18.13-4-23.48-12.32A23.82,23.82,0,0,1,362.44,687c0-2,0-4,0-6,0-1.79,0-3.57,0-5.36a4.17,4.17,0,0,1,1-3.15,4.1,4.1,0,0,1,3.1-1.08l3.14,0h3.94V474.13c0-6.55,2-12.05,5.9-15.91s9.37-5.91,15.93-5.91H684.74c12.93,0,21.62,8.66,21.62,21.55V671.42h3.85c1,0,1.94,0,2.9,0,3.34.05,4.42,1.12,4.45,4.4V677c0,3.1,0,6.31,0,9.46a26,26,0,0,1-25.16,25.42l-1.56,0H561.27q-85.75,0-171.48,0Zm-20.51-31.68c0,2.13,0,4.14,0,6.14A18.48,18.48,0,0,0,375,699.58c3.82,3.77,8.56,5.52,14.91,5.52q98.85,0,197.67,0H690.29c.92,0,1.76,0,2.6-.06,8.1-.47,15-6,16.81-13.32a52.39,52.39,0,0,0,1.11-9.68c.07-1.23.14-2.49.24-3.76H662.19c-21.44,0-46.77,0-72-.07h0c-2.78,0-4.77.43-6.3,2.54-2,2.84-4.94,3.2-7.24,3.2-14.55-.06-26.23-.09-36.83-.09-12.53,0-23.84,0-34.59.12H505c-3.39,0-7.24-.52-10-4.39-.71-1-1.62-1.36-3.37-1.36q-40.08,0-80.13,0H369.27C369.27,678.94,369.27,679.61,369.26,680.28Zm170-3.32c13,0,24.51,0,35.13.08h0c2.91,0,4.58-.71,5.85-2.45,2.09-2.85,5-3.24,7.49-3.24,23.71.06,47.7.06,68,.06H699.4a.34.34,0,0,1,0-.1c0-.58.07-1.08.07-1.58v-21q0-87.69,0-175.38c0-8.47-5.72-14.17-14.23-14.17H395c-8.95,0-14.52,5.6-14.52,14.62V671.41h50.62c16.48,0,38.18,0,59.8-.1H491c3.25,0,6.94.51,9.66,4.29.84,1.16,1.95,1.39,3.58,1.39Q521.81,677,539.3,677Z"/><path class="cls-1" d="M374.62,672.41V474.13c0-12.79,8-20.82,20.83-20.82H684.74c12.48,0,20.62,8.12,20.62,20.55V672.42c2.78,0,5.25,0,7.73,0,2.82,0,3.45.66,3.47,3.41,0,3.55.07,7.1,0,10.64a24.86,24.86,0,0,1-24.19,24.44c-.72,0-1.45,0-2.17,0q-150.21,0-300.41,0c-9.73,0-17.36-3.65-22.66-11.86A22.82,22.82,0,0,1,363.44,687c-.07-3.79,0-7.58,0-11.37,0-2.26,1-3.25,3.23-3.22C369.19,672.43,371.75,672.41,374.62,672.41Zm4.85,0h3.3c36,0,72.08.06,108.12-.09,3.81,0,6.75.8,9,3.87,1.11,1.56,2.62,1.81,4.43,1.81,23.38,0,46.76-.08,70.14,0,2.83,0,5-.59,6.67-2.86s3.92-2.84,6.73-2.83q54.9.14,109.81.06h2.71c.06-1.1.14-1.89.14-2.68q0-98.21,0-196.4c0-9.09-6.1-15.17-15.23-15.17q-145.12,0-290.25,0c-9.53,0-15.52,6.09-15.52,15.62V672.41Zm332.66,4.84h-3.45q-59.26,0-118.52-.07c-3,0-5.32.48-7.11,3-1.59,2.2-3.77,2.8-6.5,2.78-23.79-.1-47.57-.14-71.35,0-3.95,0-7.09-.71-9.43-4-1-1.45-2.44-1.78-4.2-1.78q-60.1.07-120.2,0h-3.1c0,3.28-.06,6.24,0,9.2a19.44,19.44,0,0,0,6,13.84c4.33,4.27,9.61,5.81,15.63,5.81q150.2-.06,300.4,0c.88,0,1.77,0,2.66-.06,8.24-.48,15.77-6.08,17.73-14.09C711.8,687.32,711.67,682.41,712.13,677.25Z"/><path class="cls-1" d="M506.26,436.59c-2.14,0-3.41-1.44-3.42-3.86,0-1.86,0-3.72,0-5.7v-1.59H485.57c-4.26,0-5.18-.92-5.18-5.17,0-.95,0-1.9,0-2.85,0-2.56-.05-5.21.05-7.83.05-1.16-.18-1.46-1.4-1.88a14.6,14.6,0,0,1,4.8-28.41,15.31,15.31,0,0,1,4.19.59,14.78,14.78,0,0,1,10.42,13.22,14.24,14.24,0,0,1-9.4,14.41c-1.55.53-1.89,1-1.81,2.57.12,2.14.09,4.26.07,6.51,0,.65,0,1.3,0,2h18.28a4.17,4.17,0,0,1,3.11,1.07,4,4,0,0,1,1,3c0,2.89,0,5.78,0,8.67v1.48c0,2.33-1.23,3.76-3.29,3.81Zm-22.37-50.44a7.86,7.86,0,0,0-5.62,2.3,7.79,7.79,0,0,0,5.56,13.24A7.8,7.8,0,0,0,491.6,394a7.71,7.71,0,0,0-2.28-5.51,7.6,7.6,0,0,0-5.42-2.29v0Z"/><path class="cls-1" d="M503.83,424.44H485.57c-3.71,0-4.18-.47-4.18-4.17s-.1-7.1,0-10.64c.06-1.66-.48-2.31-2.07-2.86a13.53,13.53,0,0,1-8.49-17.17,13.65,13.65,0,0,1,26.57,3.56,13.29,13.29,0,0,1-8.72,13.41c-2,.68-2.6,1.58-2.49,3.57.17,3,0,6.08,0,9.43h8.4c3.63,0,7.26,0,10.88,0,2.09,0,3.15.92,3.13,3.06,0,3.39,0,6.77,0,10.16,0,1.58-.64,2.77-2.32,2.81s-2.51-1.19-2.51-2.87C503.83,430.07,503.83,427.42,503.83,424.44ZM483.9,385.15a8.77,8.77,0,1,0,8.7,8.81A8.73,8.73,0,0,0,483.9,385.15Z"/><path class="cls-1" d="M573.67,436.58c-3.41,0-3.42-3.34-3.42-4.43v-2c0-2.39,0-4.77,0-7.15,0-3.18,1.27-4.36,4.54-4.38,2.23,0,4.46,0,6.69,0h11.23c0-.67,0-1.33,0-2,0-2.73,0-5.31-.1-7.86a3.46,3.46,0,0,0-1.38-1,14.7,14.7,0,0,1-9.71-14.44,14.64,14.64,0,1,1,20,14.24c-.57.22-1.14.42-1.74.64l-.2.07v11.91c0,4.4-.84,5.24-5.32,5.24H577.16v6.72c0,2.92-1.16,4.41-3.47,4.42Zm22.53-50.44a7.78,7.78,0,0,0-.29,15.56h.23a7.78,7.78,0,0,0,.37-15.55Z"/><path class="cls-1" d="M593.72,419.56c0-3.91.1-7.45-.09-11,0-.63-1.21-1.45-2-1.76a13.69,13.69,0,1,1,9.52-.19c-.81.31-1.64.6-2.57.93v12.62c0,3.85-.38,4.24-4.33,4.24-5.07,0-10.14,0-15.22,0h-2.85v7.72c0,1.75-.33,3.41-2.48,3.42s-2.43-1.72-2.43-3.43c0-3.06,0-6.13,0-9.19,0-2.64.8-3.38,3.54-3.39,5.32,0,10.63,0,16,0Zm2.17-16.86a8.78,8.78,0,1,0-8.52-9A8.77,8.77,0,0,0,595.89,402.7Z"/><path class="cls-1" d="M539.26,436.31a8.29,8.29,0,0,0-.79-.7,4,4,0,0,1-1.77-2.42,64.77,64.77,0,0,1-.15-6.95c0-.85,0-1.7,0-2.55v-8.46c0-1.53,0-3.06,0-4.59,0-3.89,0-7.9.07-11.86,0-1.53-.25-1.94-1.69-2.44a14.3,14.3,0,0,1-9.54-14.77,14.67,14.67,0,0,1,11.14-13.12,14.61,14.61,0,0,1,8.27,28c-1.29.45-1.43.83-1.42,2.14,0,8.22,0,16.57,0,24.64V431c0,.18,0,.38,0,.59a3.16,3.16,0,0,1-.27,2.08,10.7,10.7,0,0,1-1.78,2l-.71.68-.72.75Zm.6-61.38a6.43,6.43,0,1,0,.1,0Z"/><path class="cls-1" d="M537.57,415.23c0-5.47-.09-11,0-16.42,0-1.91-.47-2.76-2.36-3.41a13.27,13.27,0,0,1-8.87-13.76,13.63,13.63,0,0,1,25.33-5.91,13.49,13.49,0,0,1-7.25,19.76c-1.77.62-2.1,1.46-2.09,3.1.06,10.79,0,21.58,0,32.37,0,.72.25,1.61-.08,2.13a16.52,16.52,0,0,1-2.36,2.53c-.8-.84-2.2-1.62-2.28-2.52-.29-3.12-.13-6.27-.13-9.41ZM540,391.47a8.77,8.77,0,1,0-.15-17.54,8.77,8.77,0,0,0,.15,17.54Z"/><path class="cls-1" d="M401.92,655.75c-5.16,0-5.81-.64-5.81-5.74V480.24c0-4.6.85-5.47,5.4-5.47l277.14,0c4.2,0,5.17,1,5.17,5.17V650.17c0,4.91-.7,5.58-5.72,5.58H401.92Zm275.06-7v-25.1c0-46,0-93.52,0-140.28,0-.32,0-1.29-.27-1.57-.13-.12-.49-.28-1.5-.28-79.32.06-160,.06-237.94.06H403.14V648.77Z"/><path class="cls-1" d="M540,654.75H401.92c-4.61,0-4.81-.2-4.81-4.74q0-84.88,0-169.77c0-4.05.41-4.47,4.4-4.47l277.14,0c3.67,0,4.17.5,4.17,4.17q0,85.12,0,170.25c0,4.35-.25,4.58-4.72,4.58Zm138-5v-2.64q0-81.87,0-163.74c0-2.16-.47-2.85-2.78-2.85q-135.07.1-270.16.06h-2.94V649.77Z"/><path class="cls-1" d="M564.2,549.05H558c-6.28,0-10.19-3.92-10.21-10.16,0-10.5,0-21.14,0-31.64,0-6,3.9-9.92,9.87-10q3.57,0,7.14,0,4.17,0,8.34,0c5.63.08,9.47,3.89,9.56,9.49.06,3.83,0,7.71,0,11.47,0,1.35,0,2.7,0,4V528c0,3.63,0,7.26,0,10.89-.05,6.31-3.86,10.09-10.2,10.12Zm-1.18-45-5,0c-2.55,0-3.41.9-3.42,3.48,0,11.27,0,21.47,0,31.19,0,2.56.85,3.39,3.47,3.41q3.06,0,6.12,0h0q3.94,0,7.89,0c3,0,3.74-.73,3.75-3.83,0-3.39,0-6.77,0-10.16v-9.65c0-3.63,0-7.27,0-10.9,0-2.71-.82-3.49-3.58-3.52C569.2,504.09,566.11,504.07,563,504.07Z"/><path class="cls-1" d="M581.72,523.2c0,5.23,0,10.47,0,15.7,0,5.77-3.43,9.11-9.21,9.13q-7.25,0-14.49,0c-5.71,0-9.2-3.46-9.22-9.16q-.06-15.82,0-31.64c0-5.46,3.46-8.93,8.88-9q7.74-.08,15.46,0c5.07.07,8.49,3.44,8.57,8.51.09,5.47,0,11,0,16.42Zm-4.84-.1c0-5.16,0-10.32,0-15.48,0-3.27-1.26-4.48-4.57-4.51-4.76,0-9.51-.06-14.27,0-3.08,0-4.4,1.35-4.41,4.48q0,15.6,0,31.2c0,3.13,1.32,4.38,4.46,4.4,4.67,0,9.35,0,14,0,3.58,0,4.73-1.17,4.74-4.83C576.9,533.26,576.88,528.18,576.88,523.1Z"/><path class="cls-1" d="M457.29,549.09c-1.64,0-3.27,0-4.91,0l-1.47,0c-3,0-4.22-1.27-4.23-4.41q0-7.83,0-15.65V516.52c0-4.9,0-9.8,0-14.69,0-3.48,1.07-4.55,4.54-4.57h1.06l4.8,0c1.52,0,3,0,4.56,0a20,20,0,0,1,19.9,19.46c.14,4.32.15,8.65,0,12.87A20.19,20.19,0,0,1,462.07,549C460.64,549.06,459.08,549.09,457.29,549.09Zm-3.67-7c.76,0,1.51,0,2.27,0,1.05,0,2.09,0,3.12,0h0c1.42,0,2.59,0,3.67-.15a13.05,13.05,0,0,0,12-13.15c.08-4.42.08-8.28,0-11.8a13.06,13.06,0,0,0-10.94-12.67,29.54,29.54,0,0,0-4-.24c-1.13,0-2.28,0-3.44.08l-2.68.08Z"/><path class="cls-1" d="M447.67,523.1c0-7.09,0-14.18,0-21.27,0-2.93.63-3.55,3.55-3.57,3.46,0,6.93-.05,10.39,0a19.05,19.05,0,0,1,18.92,18.49q.21,6.4,0,12.81A19.13,19.13,0,0,1,462,548c-3.7.13-7.41.06-11.12,0-2.48,0-3.23-.82-3.24-3.42C447.65,537.44,447.67,530.27,447.67,523.1Zm4.95-19.78v39.75c3.46,0,6.84.26,10.17-.05a14.1,14.1,0,0,0,12.92-14.13c.07-3.95.09-7.9,0-11.84a14,14,0,0,0-11.8-13.64C460.28,502.91,456.54,503.32,452.62,503.32Z"/><path class="cls-1" d="M507.83,549.07c-1.66,0-3.31,0-5,0H501.7c-3.3,0-4.41-1.15-4.42-4.44,0-5.34,0-10.68,0-16V516.16q0-7.18,0-14.36c0-3.5,1-4.51,4.55-4.54h.27l5.51,0c1.47,0,2.93,0,4.39,0A20.18,20.18,0,0,1,532.17,517c.15,4.42.14,8.47,0,12.4a20.22,20.22,0,0,1-20,19.63C510.69,549.06,509.26,549.07,507.83,549.07Zm-3.61-7,2.28,0c1.05,0,2.09,0,3.13,0a36.27,36.27,0,0,0,3.68-.16,13.16,13.16,0,0,0,12-13.2c.11-4.18.1-8,0-11.53a13,13,0,0,0-6.84-11.44,16.1,16.1,0,0,0-8.31-1.83c-1,0-1.95,0-2.92.07s-2,.07-3,.07Z"/><path class="cls-1" d="M498.27,523.07c0-7.09,0-14.17,0-21.26,0-2.95.6-3.53,3.56-3.55,3.38,0,6.77,0,10.15,0A19.17,19.17,0,0,1,531.17,517c.14,4.1.15,8.22,0,12.32A19.22,19.22,0,0,1,512.1,548c-3.46.07-6.93,0-10.39,0-2.73,0-3.42-.71-3.43-3.45C498.26,537.41,498.27,530.24,498.27,523.07Zm5,20c3.47,0,6.86.27,10.18-.05a14.2,14.2,0,0,0,12.91-14.17c.1-3.86.11-7.73,0-11.59A14,14,0,0,0,519,505c-5-2.9-10.4-1.7-15.73-1.84Z"/><path class="cls-1" d="M483.77,622a14.59,14.59,0,0,1-5.16-28.25c1.55-.54,1.89-1,1.82-2.58-.12-2.59-.09-5.22-.07-7.76,0-.89,0-1.78,0-2.67,0-3.92,1-4.88,5-4.91l10.61,0,6.88,0v-1.59c0-1.81,0-3.61,0-5.4a4.3,4.3,0,0,1,1.05-3.21,3.19,3.19,0,0,1,2.37-.9h.14c1,0,3.33.48,3.29,4.06,0,3,0,6.23,0,9.89a4,4,0,0,1-1,3,4.11,4.11,0,0,1-3.06,1.05c-2.12,0-4.19,0-6.25,0H488.9c-.51,0-1,0-1.59.06h0c0,.63,0,1.26,0,1.88,0,2.82,0,5.48.09,8.16a4.75,4.75,0,0,0,1.39.79,14.64,14.64,0,0,1-2.57,28.24A13.92,13.92,0,0,1,483.77,622Zm.11-22.45a7.81,7.81,0,0,0-5.58,13.31,7.66,7.66,0,0,0,5.49,2.31,7.81,7.81,0,0,0,.1-15.62v0Z"/><path class="cls-1" d="M503.83,576.55c0-2.6,0-5.16,0-7.73,0-1.75.58-3.16,2.53-3.1,1.79,0,2.34,1.38,2.32,3,0,3.3,0,6.6,0,9.91,0,2.13-1,3-3.11,3-5.56,0-11.12,0-16.67,0-.79,0-1.57.07-2.62.11,0,3.84-.09,7.53.09,11.2,0,.55,1.24,1.22,2,1.52A13.65,13.65,0,1,1,470.64,611a13.44,13.44,0,0,1,8.29-16.24c2-.69,2.59-1.58,2.5-3.57-.16-3.46-.06-6.93-.05-10.39s.54-3.89,4-3.91c5.88,0,11.76,0,17.64,0A4.35,4.35,0,0,0,503.83,576.55Zm-11.24,30.87a8.78,8.78,0,1,0-8.75,8.79A8.86,8.86,0,0,0,492.59,607.42Z"/><path class="cls-1" d="M596.19,622.07a14.78,14.78,0,0,1-14.46-12,14.58,14.58,0,0,1,9.62-16.42c1.28-.43,1.45-.84,1.41-2.13-.08-2.22-.07-4.43,0-6.77,0-.67,0-1.35,0-2H575.53c-1.95,0-3.4-.08-4.31-1s-1-2.37-1-4.32v-8.7c0-3.58,2.38-4,3.4-4,2.18,0,3.47,1.46,3.47,3.92,0,1.91,0,3.82,0,5.8v1.35h.1c.64,0,1.19.07,1.75.07h15.47c4.24,0,5.09.9,5.1,5.24,0,1,0,1.9,0,2.85,0,2.56,0,5.2-.05,7.81,0,1.16.16,1.44,1.2,1.79A14.5,14.5,0,0,1,610.57,610a14.72,14.72,0,0,1-14.28,12Zm0-22.47a7.8,7.8,0,1,0,7.73,7.77,7.83,7.83,0,0,0-7.73-7.77v-1Z"/><path class="cls-1" d="M593.72,581.7H575.53c-3.88,0-4.28-.41-4.27-4.31q0-4.35,0-8.7c0-1.64.57-3,2.41-3s2.46,1.26,2.46,2.93c0,2.63,0,5.27,0,8.09,1.13,0,2,.12,2.85.12,5.16,0,10.31,0,15.47,0,3.69,0,4.09.46,4.1,4.24,0,3.55.07,7.09,0,10.63a2.37,2.37,0,0,0,1.88,2.77,13.42,13.42,0,0,1,9.18,15.35,13.66,13.66,0,0,1-26.88,0,13.49,13.49,0,0,1,9-15.28c1.76-.6,2.13-1.47,2.07-3.12C593.65,588.35,593.72,585.21,593.72,581.7Zm11.2,25.67a8.78,8.78,0,1,0-8.67,8.83A8.8,8.8,0,0,0,604.92,607.37Z"/><path class="cls-1" d="M612.55,549.09c-1.62,0-3.23,0-4.85,0l-4.83,0h-.43c-3.44,0-4-2.11-4-3.37a3.3,3.3,0,0,1,.88-2.45,4.46,4.46,0,0,1,3.23-1l8.29,0,6.95,0a9.12,9.12,0,0,0,6.54-2.51,7.37,7.37,0,0,0,2.1-5.41c0-4.44-3.67-7.68-8.63-7.71h-2.89c-.9,0-1.8,0-2.7-.06a14.62,14.62,0,0,1-.09-29.19c1,0,2-.06,3.21-.06l2.66,0,1.72,0,.92,0H629a4.69,4.69,0,0,1,3.39,1.06,3.25,3.25,0,0,1,.86,2.44c0,1.53-.79,3.35-4.24,3.35l-2.85,0-5.35,0c-3.12,0-5.66,0-8,.1a7.27,7.27,0,0,0-7,5c-1.2,3.15-.6,6,1.68,8a13,13,0,0,0,5.54,2.45,8.56,8.56,0,0,0,2,.2c.53,0,1.08,0,1.62,0s1.15,0,1.72,0h.43a14.64,14.64,0,0,1,.33,29.28C617.2,549.06,615.1,549.09,612.55,549.09Z"/><path class="cls-1" d="M620.64,498.25c2.73,0,5.47,0,8.21,0,1.78,0,3.42.34,3.38,2.48,0,1.94-1.55,2.37-3.27,2.37-5.4,0-10.8-.09-16.19.06a8.24,8.24,0,0,0-7.94,5.67c-1.29,3.4-.75,6.72,2,9.09a14.17,14.17,0,0,0,6,2.68c1.91.44,4,.07,6,.12a13.64,13.64,0,0,1,.33,27.28c-5.55.19-11.12,0-16.67,0-1.64,0-3-.52-3-2.38,0-2,1.41-2.48,3.13-2.48,5.08,0,10.15,0,15.23,0,5.7,0,9.68-3.76,9.64-8.93-.05-5-4.1-8.66-9.63-8.7-1.85,0-3.71,0-5.56,0a13.62,13.62,0,0,1-.08-27.19c2.81-.13,5.64,0,8.46,0Z"/><path class="cls-1" d="M539.92,633.31a14.35,14.35,0,0,1-5.63-1.15,14.68,14.68,0,0,1-7.69-19.49,13.6,13.6,0,0,1,8.59-7.8c1.25-.38,1.42-.77,1.41-2.12-.05-9.7-.05-20.38,0-33.59a5.31,5.31,0,0,1,.94-3.31,3.8,3.8,0,0,1,2.6-1.07,1.71,1.71,0,0,1,1.09.33,5.34,5.34,0,0,1,2.1,3.53c.12,4.39.1,8.84.09,13.15,0,1.42,0,2.85,0,4.27,0,1.57,0,3.14,0,4.71,0,3.85,0,7.83,0,11.74,0,1.48.17,2,1.65,2.47a14.12,14.12,0,0,1,8.28,7.5,14.72,14.72,0,0,1-13.39,20.83Zm0-22.47a7.81,7.81,0,0,0,0,15.62H540a7.94,7.94,0,0,0,7.77-7.87,7.83,7.83,0,0,0-7.77-7.75Z"/><path class="cls-1" d="M542.42,586.06c0,5.48.06,11,0,16.43,0,1.85.36,2.75,2.32,3.43a13.42,13.42,0,0,1,8,17.73,13.64,13.64,0,1,1-25.15-10.57,12.52,12.52,0,0,1,8-7.25c1.78-.54,2.13-1.42,2.12-3.08q-.09-16.8,0-33.59a4.43,4.43,0,0,1,.71-2.67c.44-.52,1.9-.91,2.29-.6a4.43,4.43,0,0,1,1.73,2.78C542.5,574.46,542.42,580.26,542.42,586.06Zm6.34,32.53a8.77,8.77,0,1,0-8.92,8.87A8.81,8.81,0,0,0,548.76,618.59Z"/></svg>